<svg xmlns="http://www.w3.org/2000/svg" viewBox="0 0 512 512" role="img" aria-label="happySenior logo">
<rect width="512" height="512" rx="96" fill="#fffaf0"/>
<g fill="#ffb719"><circle cx="256" cy="185" r="76"/><rect x="247" y="57" width="18" height="44" rx="9"/><rect x="163" y="83" width="18" height="44" rx="9" transform="rotate(-38 172 105)"/><rect x="331" y="83" width="18" height="44" rx="9" transform="rotate(38 340 105)"/><rect x="125" y="150" width="18" height="44" rx="9" transform="rotate(-82 134 172)"/><rect x="369" y="150" width="18" height="44" rx="9" transform="rotate(82 378 172)"/></g>
<path fill="#75b843" d="M68 350c46-28 83-18 119 18-8 69-54 98-119 75 18-31 18-62 0-93Z"/><path fill="#35a7a9" d="M444 350c-46-28-83-18-119 18 8 69 54 98 119 75-18-31-18-62 0-93Z"/>
<path fill="#ff6b55" d="M88 314c20-62 72-72 124-40l44 71-31 87c-58-8-111-42-137-118Z"/><path fill="#15949a" d="M424 314c-20-62-72-72-124-40l-44 71 31 87c58-8 111-42 137-118Z"/>
<circle cx="190" cy="274" r="43" fill="#fffaf0"/><circle cx="322" cy="274" r="43" fill="#fffaf0"/>
<path d="M164 272q12-14 25 0M181 295q9 11 18 0M297 272q12-14 25 0M314 295q9 11 18 0" fill="none" stroke="#126b72" stroke-width="9" stroke-linecap="round"/>
<path d="M256 328c-29-31-78 10 0 74 78-64 29-105 0-74Z" fill="#ff6b55" stroke="#fffaf0" stroke-width="8"/>
</svg>
